<?xml version="1.0" encoding="UTF-8"?>
<svg id="Capa_2" data-name="Capa 2" xmlns="http://www.w3.org/2000/svg" viewBox="0 0 1080 1080">
  <defs>
    <style>
      .cls-1 {
        fill: #f18918;
      }

      .cls-1, .cls-2 {
        font-family: Montserrat-Black, Montserrat;
        font-size: 177.33px;
        font-variation-settings: 'wght' 900;
        font-weight: 800;
      }

      .cls-3 {
        fill: #4e85c4;
      }

      .cls-3, .cls-4 {
        stroke-width: 0px;
      }

      .cls-2 {
        fill: #a2c633;
      }

      .cls-4 {
        fill: #fbfbfb;
      }
    </style>
  </defs>
  <g>
    <circle class="cls-4" cx="540" cy="540" r="495.03"/>
    <path class="cls-3" d="m188.92,188.92C304.32,71.91,476.33,18.47,637.91,47.81c349.46,61.99,530.01,454.26,349.12,760.15-129.64,220.59-410.09,311.21-643.72,206.9-153.39-66.86-267.4-212.36-295.44-376.96-29.37-161.57,24.03-333.57,141.05-448.97h0Zm2.07,2.07C-28.43,409.57,8.21,778.48,266.22,949.76c191.7,130.08,459.49,103.68,621.76-61.79,165.43-162.29,191.89-430.03,61.78-621.75C778.47,8.22,409.57-28.44,190.99,190.99h0Z"/>
  </g>
  <path class="cls-3" d="m856.53,689.69c-14.46-65.45-82.36-101.95-146.42-78.51-4.09,1.49-5.79.82-7.95-2.74-8.41-13.85-16.88-27.66-25.38-41.47h14.26c3.61,0,7.22-.01,10.81-.24,11.47-.72,15.17-3.61,18.82-14.58,15.12-45.44,30.26-90.88,45.3-136.33,5.23-15.82,10.29-31.7,15.31-47.58,3.67-11.6-1.09-18.04-13.3-18.27-2.55-.06-5.11-.01-7.66-.01-137,.19-273.98.39-410.98.67-3.22.01-4.71-.92-5.76-4.06-8.54-25.63-17.28-51.21-25.99-76.78-2.89-8.51-9.01-12.99-17.91-13-20.43-.04-40.86-.04-61.29,0-10.38.03-17.61,6.86-17.57,16.45.03,9.51,7.37,16.24,17.76,16.25,15.46.03,30.94.18,46.41-.1,4.04-.07,5.64,1.24,6.89,4.98,30.36,90.86,60.83,181.69,91.37,272.51h36.21c-8.63,13.97-17.16,27.99-25.59,42.08-2,3.36-3.8,3.64-7.14,2.27-4.21-1.74-8.62-3.07-13.05-4.16-73.03-17.94-141.13,39.94-135.6,115.15,4.67,63.56,63.76,110.1,126.43,99.57,46.32-7.78,81.14-41.53,90.22-87.86.98-5.04,2.95-6.14,7.8-6.11,28.48.25,56.96-.09,85.45.27,8.38.1,13.76-2.92,18.03-10.04,16.58-27.65,33.49-55.1,50.28-82.63,11.09-18.15,22.22-36.3,33.72-55.1,1.45,2.12,2.61,3.67,3.62,5.31,7.32,11.86,14.32,23.92,22.01,35.54,3.58,5.37,3.41,8.38-1.61,13.08-34.55,32.3-43.8,82.79-23.7,126.2,19.42,41.9,64.36,66.99,110.86,61.89,65.36-7.19,109.5-68.58,95.35-132.61Zm-484.04,99.93c-33.54,11.2-71.38-1.46-91.64-31.21-20.4-29.97-18.21-68.64,5.49-97.02,21.21-25.37,59.89-35.4,89.04-22.49-8.19,13.47-16.12,26.54-24.08,39.61-5.19,8.5-10.36,16.99-15.64,25.43-3.44,5.49-4.35,11.15-1.13,16.94,3.18,5.7,8.49,7.14,14.72,7.1,23.11-.13,46.21-.04,69.31-.04h6.53c-1.01,21.19-21.31,51.24-52.6,61.69Zm1.33-91.37c9.13-14.96,17.86-29.24,26.99-44.2,13.51,12.47,21.37,26.77,25.11,44.2h-52.1Zm82.2.33c-4.37-28.21-17.45-51.64-39.52-70.24,9.69-15.87,19.18-31.41,29.29-47.97,23.44,39.56,46.45,78.35,70.07,118.21h-59.84Zm90.7-5.86c-25.11-42.35-49.64-83.76-74.59-125.84-.03-.07-.07-.13-.12-.21h151.69c-.06.09-.1.18-.16.27-25.69,42.07-50.96,83.43-76.81,125.78Zm246.29,88c-37.22,23.65-85.37,13.93-109.83-22.28-25.78-38.15-12.27-83.54,12.78-103.79,6.71,10.86,13.39,21.65,20.04,32.46,6.68,10.84,13.3,21.73,20.01,32.55,5.1,8.25,14.05,10.78,21.43,6.17,7.14-4.43,8.75-13.35,3.74-21.55-11.94-19.54-23.98-39.01-35.95-58.52-1.33-2.18-2.58-4.4-3.89-6.64,29.51-13.75,75.04-3.65,96.93,33.3,22.11,37.34,10.89,85.31-25.26,108.28Z"/>
  <path class="cls-3" d="m612.03,551.97c-.06.09-.1.18-.16.27-50.46-.01-100.94-.03-151.4-.06-.03-.07-.07-.13-.12-.21h151.69Z"/>
  <text class="cls-1" transform="translate(386.35 521.15)"><tspan x="0" y="0">C</tspan></text>
  <text class="cls-2" transform="translate(534.33 521.15)"><tspan x="0" y="0">M</tspan></text>
</svg>